<mxfile host="app.diagrams.net" modified="2023-10-16T16:15:52.976Z" agent="Mozilla/5.0 (X11; Linux x86_64; rv:109.0) Gecko/20100101 Firefox/114.0" etag="xKHO9PMNQXWxzD-_9TCg" version="22.0.4" type="github">
  <diagram name="Página-1" id="1d2L8bz1bzAMaSmPZkwq">
    <mxGraphModel dx="3695" dy="1590" grid="1" gridSize="10" guides="1" tooltips="1" connect="1" arrows="1" fold="1" page="1" pageScale="1" pageWidth="827" pageHeight="1169" math="0" shadow="0">
      <root>
        <mxCell id="0" />
        <mxCell id="1" parent="0" />
        <mxCell id="wL6kafA09rnqlE72niW9-103" style="edgeStyle=orthogonalEdgeStyle;rounded=0;orthogonalLoop=1;jettySize=auto;html=1;exitX=0;exitY=1;exitDx=0;exitDy=0;entryX=1;entryY=0;entryDx=0;entryDy=0;endArrow=none;endFill=0;" parent="1" edge="1">
          <mxGeometry relative="1" as="geometry">
            <mxPoint x="180.9955206038138" y="839.9544321365512" as="targetPoint" />
            <mxPoint x="270.85" y="789.1799999999995" as="sourcePoint" />
            <Array as="points">
              <mxPoint x="271" y="840" />
            </Array>
          </mxGeometry>
        </mxCell>
        <mxCell id="wL6kafA09rnqlE72niW9-104" value="Jornada" style="ellipse;whiteSpace=wrap;html=1;align=center;fillColor=#d5e8d4;strokeColor=#82b366;" parent="1" vertex="1">
          <mxGeometry x="100" y="830" width="100" height="40" as="geometry" />
        </mxCell>
        <mxCell id="wL6kafA09rnqlE72niW9-1" value="Campeonato" style="whiteSpace=wrap;html=1;align=center;fillColor=#ffe6cc;strokeColor=#d79b00;" parent="1" vertex="1">
          <mxGeometry x="340" y="20" width="100" height="40" as="geometry" />
        </mxCell>
        <mxCell id="wL6kafA09rnqlE72niW9-46" style="edgeStyle=orthogonalEdgeStyle;rounded=0;orthogonalLoop=1;jettySize=auto;html=1;exitX=1;exitY=0;exitDx=0;exitDy=0;entryX=0;entryY=1;entryDx=0;entryDy=0;endArrow=none;endFill=0;" parent="1" source="wL6kafA09rnqlE72niW9-3" target="wL6kafA09rnqlE72niW9-45" edge="1">
          <mxGeometry relative="1" as="geometry" />
        </mxCell>
        <mxCell id="wL6kafA09rnqlE72niW9-3" value="Participante" style="whiteSpace=wrap;html=1;align=center;fillColor=#ffe6cc;strokeColor=#d79b00;" parent="1" vertex="1">
          <mxGeometry x="340" y="290" width="100" height="40" as="geometry" />
        </mxCell>
        <mxCell id="wL6kafA09rnqlE72niW9-95" style="edgeStyle=orthogonalEdgeStyle;rounded=0;orthogonalLoop=1;jettySize=auto;html=1;exitX=1;exitY=1;exitDx=0;exitDy=0;entryX=0;entryY=0;entryDx=0;entryDy=0;endArrow=none;endFill=0;" parent="1" source="wL6kafA09rnqlE72niW9-4" target="wL6kafA09rnqlE72niW9-94" edge="1">
          <mxGeometry relative="1" as="geometry">
            <Array as="points">
              <mxPoint x="530" y="675" />
              <mxPoint x="635" y="675" />
            </Array>
          </mxGeometry>
        </mxCell>
        <mxCell id="wL6kafA09rnqlE72niW9-4" value="Jugador" style="whiteSpace=wrap;html=1;align=center;fillColor=#ffe6cc;strokeColor=#d79b00;" parent="1" vertex="1">
          <mxGeometry x="430" y="615" width="100" height="40" as="geometry" />
        </mxCell>
        <mxCell id="wL6kafA09rnqlE72niW9-5" value="Árbitro" style="whiteSpace=wrap;html=1;align=center;fillColor=#ffe6cc;strokeColor=#d79b00;" parent="1" vertex="1">
          <mxGeometry x="250" y="615" width="100" height="40" as="geometry" />
        </mxCell>
        <mxCell id="wL6kafA09rnqlE72niW9-26" style="edgeStyle=orthogonalEdgeStyle;rounded=0;orthogonalLoop=1;jettySize=auto;html=1;entryX=0;entryY=0.5;entryDx=0;entryDy=0;endArrow=none;endFill=0;" parent="1" source="wL6kafA09rnqlE72niW9-6" target="wL6kafA09rnqlE72niW9-25" edge="1">
          <mxGeometry relative="1" as="geometry" />
        </mxCell>
        <mxCell id="wL6kafA09rnqlE72niW9-29" style="edgeStyle=orthogonalEdgeStyle;rounded=0;orthogonalLoop=1;jettySize=auto;html=1;entryX=0.5;entryY=1;entryDx=0;entryDy=0;endArrow=none;endFill=0;" parent="1" source="wL6kafA09rnqlE72niW9-6" target="wL6kafA09rnqlE72niW9-28" edge="1">
          <mxGeometry relative="1" as="geometry" />
        </mxCell>
        <mxCell id="wL6kafA09rnqlE72niW9-66" style="edgeStyle=orthogonalEdgeStyle;rounded=0;orthogonalLoop=1;jettySize=auto;html=1;exitX=1;exitY=1;exitDx=0;exitDy=0;entryX=0;entryY=0;entryDx=0;entryDy=0;endArrow=none;endFill=0;" parent="1" source="wL6kafA09rnqlE72niW9-6" target="wL6kafA09rnqlE72niW9-65" edge="1">
          <mxGeometry relative="1" as="geometry" />
        </mxCell>
        <mxCell id="wL6kafA09rnqlE72niW9-6" value="País" style="whiteSpace=wrap;html=1;align=center;fillColor=#ffe6cc;strokeColor=#d79b00;" parent="1" vertex="1">
          <mxGeometry x="-70" y="290" width="100" height="40" as="geometry" />
        </mxCell>
        <mxCell id="wL6kafA09rnqlE72niW9-137" style="edgeStyle=orthogonalEdgeStyle;rounded=0;orthogonalLoop=1;jettySize=auto;html=1;exitX=1;exitY=0.5;exitDx=0;exitDy=0;entryX=0;entryY=0.5;entryDx=0;entryDy=0;endArrow=none;endFill=0;" parent="1" source="wL6kafA09rnqlE72niW9-7" target="wL6kafA09rnqlE72niW9-136" edge="1">
          <mxGeometry relative="1" as="geometry" />
        </mxCell>
        <mxCell id="wL6kafA09rnqlE72niW9-7" value="Partida" style="whiteSpace=wrap;html=1;align=center;fillColor=#ffe6cc;strokeColor=#d79b00;" parent="1" vertex="1">
          <mxGeometry x="340" y="950" width="100" height="40" as="geometry" />
        </mxCell>
        <mxCell id="wL6kafA09rnqlE72niW9-8" value="Hotel" style="whiteSpace=wrap;html=1;align=center;fillColor=#ffe6cc;strokeColor=#d79b00;" parent="1" vertex="1">
          <mxGeometry x="-50" y="560" width="100" height="40" as="geometry" />
        </mxCell>
        <mxCell id="wL6kafA09rnqlE72niW9-12" style="edgeStyle=orthogonalEdgeStyle;rounded=0;orthogonalLoop=1;jettySize=auto;html=1;exitX=0.5;exitY=1;exitDx=0;exitDy=0;entryX=0.5;entryY=0;entryDx=0;entryDy=0;endArrow=none;endFill=0;" parent="1" source="wL6kafA09rnqlE72niW9-11" target="wL6kafA09rnqlE72niW9-3" edge="1">
          <mxGeometry relative="1" as="geometry" />
        </mxCell>
        <mxCell id="wL6kafA09rnqlE72niW9-13" style="edgeStyle=orthogonalEdgeStyle;rounded=0;orthogonalLoop=1;jettySize=auto;html=1;exitX=0.5;exitY=0;exitDx=0;exitDy=0;entryX=0.5;entryY=1;entryDx=0;entryDy=0;endArrow=none;endFill=0;" parent="1" source="wL6kafA09rnqlE72niW9-11" target="wL6kafA09rnqlE72niW9-1" edge="1">
          <mxGeometry relative="1" as="geometry" />
        </mxCell>
        <mxCell id="wL6kafA09rnqlE72niW9-11" value="Participan" style="shape=rhombus;perimeter=rhombusPerimeter;whiteSpace=wrap;html=1;align=center;fillColor=#dae8fc;strokeColor=#6c8ebf;" parent="1" vertex="1">
          <mxGeometry x="330" y="130" width="120" height="60" as="geometry" />
        </mxCell>
        <mxCell id="wL6kafA09rnqlE72niW9-18" style="edgeStyle=orthogonalEdgeStyle;rounded=0;orthogonalLoop=1;jettySize=auto;html=1;entryX=0.5;entryY=1;entryDx=0;entryDy=0;endArrow=none;endFill=0;" parent="1" source="wL6kafA09rnqlE72niW9-14" target="wL6kafA09rnqlE72niW9-15" edge="1">
          <mxGeometry relative="1" as="geometry" />
        </mxCell>
        <mxCell id="wL6kafA09rnqlE72niW9-19" style="edgeStyle=orthogonalEdgeStyle;rounded=0;orthogonalLoop=1;jettySize=auto;html=1;exitX=0;exitY=1;exitDx=0;exitDy=0;exitPerimeter=0;entryX=0.5;entryY=0;entryDx=0;entryDy=0;endArrow=none;endFill=0;" parent="1" source="wL6kafA09rnqlE72niW9-14" target="wL6kafA09rnqlE72niW9-5" edge="1">
          <mxGeometry relative="1" as="geometry" />
        </mxCell>
        <mxCell id="wL6kafA09rnqlE72niW9-20" style="edgeStyle=orthogonalEdgeStyle;rounded=0;orthogonalLoop=1;jettySize=auto;html=1;exitX=1;exitY=1;exitDx=0;exitDy=0;exitPerimeter=0;entryX=0.5;entryY=0;entryDx=0;entryDy=0;endArrow=none;endFill=0;" parent="1" source="wL6kafA09rnqlE72niW9-14" target="wL6kafA09rnqlE72niW9-4" edge="1">
          <mxGeometry relative="1" as="geometry" />
        </mxCell>
        <mxCell id="wL6kafA09rnqlE72niW9-14" value="" style="verticalLabelPosition=bottom;verticalAlign=top;html=1;shape=mxgraph.basic.acute_triangle;dx=0.5;" parent="1" vertex="1">
          <mxGeometry x="360" y="471.25" width="60" height="50" as="geometry" />
        </mxCell>
        <mxCell id="wL6kafA09rnqlE72niW9-34" style="edgeStyle=orthogonalEdgeStyle;rounded=0;orthogonalLoop=1;jettySize=auto;html=1;entryX=0.5;entryY=1;entryDx=0;entryDy=0;endArrow=none;endFill=0;" parent="1" source="wL6kafA09rnqlE72niW9-15" target="wL6kafA09rnqlE72niW9-3" edge="1">
          <mxGeometry relative="1" as="geometry" />
        </mxCell>
        <mxCell id="wL6kafA09rnqlE72niW9-15" value="" style="ellipse;whiteSpace=wrap;html=1;aspect=fixed;" parent="1" vertex="1">
          <mxGeometry x="382.5" y="451.25" width="15" height="15" as="geometry" />
        </mxCell>
        <mxCell id="wL6kafA09rnqlE72niW9-22" value="" style="shape=requiredInterface;html=1;verticalLabelPosition=bottom;sketch=0;rotation=90;" parent="1" vertex="1">
          <mxGeometry x="381.25" y="450" width="17.5" height="150" as="geometry" />
        </mxCell>
        <mxCell id="wL6kafA09rnqlE72niW9-23" value="Tipo" style="ellipse;whiteSpace=wrap;html=1;aspect=fixed;" parent="1" vertex="1">
          <mxGeometry x="470" y="476.25" width="40" height="40" as="geometry" />
        </mxCell>
        <mxCell id="wL6kafA09rnqlE72niW9-24" style="edgeStyle=orthogonalEdgeStyle;rounded=0;orthogonalLoop=1;jettySize=auto;html=1;entryX=0;entryY=0;entryDx=45;entryDy=25;entryPerimeter=0;endArrow=none;endFill=0;" parent="1" source="wL6kafA09rnqlE72niW9-23" target="wL6kafA09rnqlE72niW9-14" edge="1">
          <mxGeometry relative="1" as="geometry" />
        </mxCell>
        <mxCell id="wL6kafA09rnqlE72niW9-27" style="edgeStyle=orthogonalEdgeStyle;rounded=0;orthogonalLoop=1;jettySize=auto;html=1;exitX=1;exitY=0.5;exitDx=0;exitDy=0;entryX=0;entryY=0.5;entryDx=0;entryDy=0;endArrow=none;endFill=0;" parent="1" source="wL6kafA09rnqlE72niW9-25" target="wL6kafA09rnqlE72niW9-3" edge="1">
          <mxGeometry relative="1" as="geometry" />
        </mxCell>
        <mxCell id="wL6kafA09rnqlE72niW9-25" value="Envía" style="shape=rhombus;perimeter=rhombusPerimeter;whiteSpace=wrap;html=1;align=center;fillColor=#dae8fc;strokeColor=#6c8ebf;" parent="1" vertex="1">
          <mxGeometry x="130" y="280" width="120" height="60" as="geometry" />
        </mxCell>
        <mxCell id="wL6kafA09rnqlE72niW9-30" style="edgeStyle=orthogonalEdgeStyle;rounded=0;orthogonalLoop=1;jettySize=auto;html=1;entryX=0.5;entryY=0;entryDx=0;entryDy=0;endArrow=none;endFill=0;" parent="1" source="wL6kafA09rnqlE72niW9-28" target="wL6kafA09rnqlE72niW9-6" edge="1">
          <mxGeometry relative="1" as="geometry" />
        </mxCell>
        <mxCell id="wL6kafA09rnqlE72niW9-28" value="Representa" style="shape=rhombus;perimeter=rhombusPerimeter;whiteSpace=wrap;html=1;align=center;fillColor=#dae8fc;strokeColor=#6c8ebf;" parent="1" vertex="1">
          <mxGeometry x="-200" y="180" width="120" height="60" as="geometry" />
        </mxCell>
        <mxCell id="wL6kafA09rnqlE72niW9-37" value="" style="endArrow=none;html=1;rounded=0;exitX=1;exitY=0;exitDx=0;exitDy=0;entryX=0;entryY=1;entryDx=0;entryDy=0;" parent="1" source="wL6kafA09rnqlE72niW9-8" target="wL6kafA09rnqlE72niW9-3" edge="1">
          <mxGeometry width="50" height="50" relative="1" as="geometry">
            <mxPoint x="210" y="500" as="sourcePoint" />
            <mxPoint x="260" y="450" as="targetPoint" />
          </mxGeometry>
        </mxCell>
        <mxCell id="wL6kafA09rnqlE72niW9-38" value="Se aloja" style="shape=rhombus;perimeter=rhombusPerimeter;whiteSpace=wrap;html=1;align=center;fillColor=#dae8fc;strokeColor=#6c8ebf;" parent="1" vertex="1">
          <mxGeometry x="140" y="411" width="120" height="60" as="geometry" />
        </mxCell>
        <mxCell id="wL6kafA09rnqlE72niW9-42" style="edgeStyle=orthogonalEdgeStyle;rounded=0;orthogonalLoop=1;jettySize=auto;html=1;entryX=0;entryY=0.5;entryDx=0;entryDy=0;endArrow=none;endFill=0;" parent="1" target="wL6kafA09rnqlE72niW9-7" edge="1">
          <mxGeometry relative="1" as="geometry">
            <mxPoint x="140" y="910" as="sourcePoint" />
          </mxGeometry>
        </mxCell>
        <mxCell id="wL6kafA09rnqlE72niW9-99" style="edgeStyle=orthogonalEdgeStyle;rounded=0;orthogonalLoop=1;jettySize=auto;html=1;exitX=0;exitY=0.5;exitDx=0;exitDy=0;entryX=1;entryY=1;entryDx=0;entryDy=0;endArrow=none;endFill=0;" parent="1" source="wL6kafA09rnqlE72niW9-39" target="wL6kafA09rnqlE72niW9-40" edge="1">
          <mxGeometry relative="1" as="geometry" />
        </mxCell>
        <mxCell id="wL6kafA09rnqlE72niW9-128" value="" style="edgeStyle=orthogonalEdgeStyle;rounded=0;orthogonalLoop=1;jettySize=auto;html=1;endArrow=none;endFill=0;" parent="1" edge="1">
          <mxGeometry relative="1" as="geometry">
            <mxPoint x="79.41" y="1019.9999999999998" as="sourcePoint" />
            <mxPoint x="79" y="1030" as="targetPoint" />
          </mxGeometry>
        </mxCell>
        <mxCell id="wL6kafA09rnqlE72niW9-39" value="Celebra" style="shape=rhombus;perimeter=rhombusPerimeter;whiteSpace=wrap;html=1;align=center;fillColor=#dae8fc;strokeColor=#6c8ebf;" parent="1" vertex="1">
          <mxGeometry x="20" y="880" width="120" height="60" as="geometry" />
        </mxCell>
        <mxCell id="wL6kafA09rnqlE72niW9-100" style="edgeStyle=orthogonalEdgeStyle;rounded=0;orthogonalLoop=1;jettySize=auto;html=1;exitX=1;exitY=0;exitDx=0;exitDy=0;endArrow=none;endFill=0;" parent="1" source="wL6kafA09rnqlE72niW9-40" edge="1">
          <mxGeometry relative="1" as="geometry">
            <mxPoint x="-60" y="749.9999999999995" as="targetPoint" />
          </mxGeometry>
        </mxCell>
        <mxCell id="wL6kafA09rnqlE72niW9-40" value="Sala" style="whiteSpace=wrap;html=1;align=center;fillColor=#ffe6cc;strokeColor=#d79b00;" parent="1" vertex="1">
          <mxGeometry x="-175" y="810" width="100" height="40" as="geometry" />
        </mxCell>
        <mxCell id="wL6kafA09rnqlE72niW9-47" style="edgeStyle=orthogonalEdgeStyle;rounded=0;orthogonalLoop=1;jettySize=auto;html=1;exitX=1;exitY=1;exitDx=0;exitDy=0;entryX=0;entryY=0;entryDx=0;entryDy=0;endArrow=none;endFill=0;" parent="1" source="wL6kafA09rnqlE72niW9-43" target="wL6kafA09rnqlE72niW9-3" edge="1">
          <mxGeometry relative="1" as="geometry">
            <Array as="points">
              <mxPoint x="360" y="234" />
              <mxPoint x="360" y="270" />
              <mxPoint x="340" y="270" />
            </Array>
          </mxGeometry>
        </mxCell>
        <mxCell id="wL6kafA09rnqlE72niW9-43" value="ID" style="ellipse;whiteSpace=wrap;html=1;align=center;fontStyle=4;fillColor=#fff2cc;strokeColor=#d6b656;" parent="1" vertex="1">
          <mxGeometry x="281.25" y="200" width="100" height="40" as="geometry" />
        </mxCell>
        <mxCell id="wL6kafA09rnqlE72niW9-45" value="Nombre" style="ellipse;whiteSpace=wrap;html=1;align=center;fillColor=#d5e8d4;strokeColor=#82b366;" parent="1" vertex="1">
          <mxGeometry x="398.75" y="200" width="100" height="40" as="geometry" />
        </mxCell>
        <mxCell id="wL6kafA09rnqlE72niW9-49" style="edgeStyle=orthogonalEdgeStyle;rounded=0;orthogonalLoop=1;jettySize=auto;html=1;exitX=0;exitY=0;exitDx=0;exitDy=0;entryX=1;entryY=1;entryDx=0;entryDy=0;endArrow=none;endFill=0;" parent="1" source="wL6kafA09rnqlE72niW9-48" target="wL6kafA09rnqlE72niW9-3" edge="1">
          <mxGeometry relative="1" as="geometry">
            <Array as="points">
              <mxPoint x="435" y="360" />
              <mxPoint x="440" y="360" />
            </Array>
          </mxGeometry>
        </mxCell>
        <mxCell id="wL6kafA09rnqlE72niW9-48" value="Dirección" style="ellipse;whiteSpace=wrap;html=1;align=center;fillColor=#d5e8d4;strokeColor=#82b366;" parent="1" vertex="1">
          <mxGeometry x="420" y="371" width="100" height="40" as="geometry" />
        </mxCell>
        <mxCell id="wL6kafA09rnqlE72niW9-51" style="edgeStyle=orthogonalEdgeStyle;rounded=0;orthogonalLoop=1;jettySize=auto;html=1;exitX=0.5;exitY=0;exitDx=0;exitDy=0;entryX=0;entryY=1;entryDx=0;entryDy=0;endArrow=none;endFill=0;" parent="1" source="wL6kafA09rnqlE72niW9-50" target="wL6kafA09rnqlE72niW9-3" edge="1">
          <mxGeometry relative="1" as="geometry">
            <Array as="points">
              <mxPoint x="333" y="390" />
              <mxPoint x="350" y="390" />
              <mxPoint x="350" y="355" />
              <mxPoint x="340" y="355" />
            </Array>
          </mxGeometry>
        </mxCell>
        <mxCell id="wL6kafA09rnqlE72niW9-50" value="Teléfono" style="ellipse;whiteSpace=wrap;html=1;align=center;fillColor=#d5e8d4;strokeColor=#82b366;" parent="1" vertex="1">
          <mxGeometry x="282.5" y="371" width="100" height="40" as="geometry" />
        </mxCell>
        <mxCell id="wL6kafA09rnqlE72niW9-53" style="edgeStyle=orthogonalEdgeStyle;rounded=0;orthogonalLoop=1;jettySize=auto;html=1;exitX=1;exitY=1;exitDx=0;exitDy=0;entryX=0;entryY=0;entryDx=0;entryDy=0;endArrow=none;endFill=0;" parent="1" source="wL6kafA09rnqlE72niW9-52" target="wL6kafA09rnqlE72niW9-3" edge="1">
          <mxGeometry relative="1" as="geometry">
            <Array as="points">
              <mxPoint x="266" y="290" />
            </Array>
          </mxGeometry>
        </mxCell>
        <mxCell id="wL6kafA09rnqlE72niW9-52" value="Campeonatos" style="ellipse;shape=doubleEllipse;margin=3;whiteSpace=wrap;html=1;align=center;fillColor=#d5e8d4;strokeColor=#82b366;" parent="1" vertex="1">
          <mxGeometry x="181" y="220" width="100" height="40" as="geometry" />
        </mxCell>
        <mxCell id="wL6kafA09rnqlE72niW9-56" style="edgeStyle=orthogonalEdgeStyle;rounded=0;orthogonalLoop=1;jettySize=auto;html=1;entryX=1;entryY=0.5;entryDx=0;entryDy=0;endArrow=none;endFill=0;" parent="1" source="wL6kafA09rnqlE72niW9-54" target="wL6kafA09rnqlE72niW9-4" edge="1">
          <mxGeometry relative="1" as="geometry">
            <Array as="points">
              <mxPoint x="570" y="635" />
              <mxPoint x="570" y="635" />
            </Array>
          </mxGeometry>
        </mxCell>
        <mxCell id="wL6kafA09rnqlE72niW9-54" value="Nivel de juego" style="ellipse;whiteSpace=wrap;html=1;align=center;fillColor=#d5e8d4;strokeColor=#82b366;" parent="1" vertex="1">
          <mxGeometry x="610" y="615" width="100" height="40" as="geometry" />
        </mxCell>
        <mxCell id="wL6kafA09rnqlE72niW9-57" value="1:N" style="text;html=1;align=center;verticalAlign=middle;resizable=0;points=[];autosize=1;strokeColor=none;fillColor=none;" parent="1" vertex="1">
          <mxGeometry x="295" y="290" width="40" height="30" as="geometry" />
        </mxCell>
        <mxCell id="wL6kafA09rnqlE72niW9-58" value="1:1" style="text;html=1;align=center;verticalAlign=middle;resizable=0;points=[];autosize=1;strokeColor=none;fillColor=none;" parent="1" vertex="1">
          <mxGeometry x="35" y="290" width="40" height="30" as="geometry" />
        </mxCell>
        <mxCell id="wL6kafA09rnqlE72niW9-59" value="1:N" style="text;html=1;align=center;verticalAlign=middle;resizable=0;points=[];autosize=1;strokeColor=none;fillColor=none;" parent="1" vertex="1">
          <mxGeometry x="170" y="260" width="40" height="30" as="geometry" />
        </mxCell>
        <mxCell id="wL6kafA09rnqlE72niW9-60" value="1:1" style="text;html=1;align=center;verticalAlign=middle;resizable=0;points=[];autosize=1;strokeColor=none;fillColor=none;" parent="1" vertex="1">
          <mxGeometry x="-20" y="240" width="40" height="30" as="geometry" />
        </mxCell>
        <mxCell id="wL6kafA09rnqlE72niW9-61" value="1:1" style="text;html=1;align=center;verticalAlign=middle;resizable=0;points=[];autosize=1;strokeColor=none;fillColor=none;" parent="1" vertex="1">
          <mxGeometry x="-175" y="295" width="40" height="30" as="geometry" />
        </mxCell>
        <mxCell id="wL6kafA09rnqlE72niW9-62" value="1:1" style="text;html=1;align=center;verticalAlign=middle;resizable=0;points=[];autosize=1;strokeColor=none;fillColor=none;rotation=0;" parent="1" vertex="1">
          <mxGeometry x="-160" y="160" width="40" height="30" as="geometry" />
        </mxCell>
        <mxCell id="wL6kafA09rnqlE72niW9-64" style="edgeStyle=orthogonalEdgeStyle;rounded=0;orthogonalLoop=1;jettySize=auto;html=1;entryX=0.5;entryY=1;entryDx=0;entryDy=0;endArrow=none;endFill=0;" parent="1" source="wL6kafA09rnqlE72niW9-63" target="wL6kafA09rnqlE72niW9-6" edge="1">
          <mxGeometry relative="1" as="geometry" />
        </mxCell>
        <mxCell id="wL6kafA09rnqlE72niW9-63" value="ID" style="whiteSpace=wrap;html=1;align=center;fillColor=#fff2cc;strokeColor=#d6b656;shape=ellipse;perimeter=ellipsePerimeter;fontStyle=4;" parent="1" vertex="1">
          <mxGeometry x="-70" y="411" width="100" height="40" as="geometry" />
        </mxCell>
        <mxCell id="wL6kafA09rnqlE72niW9-65" value="Nombre" style="ellipse;whiteSpace=wrap;html=1;align=center;fillColor=#d5e8d4;strokeColor=#82b366;" parent="1" vertex="1">
          <mxGeometry x="40" y="370" width="100" height="40" as="geometry" />
        </mxCell>
        <mxCell id="wL6kafA09rnqlE72niW9-68" style="edgeStyle=orthogonalEdgeStyle;rounded=0;orthogonalLoop=1;jettySize=auto;html=1;exitX=1;exitY=0;exitDx=0;exitDy=0;entryX=0;entryY=1;entryDx=0;entryDy=0;endArrow=none;endFill=0;" parent="1" source="wL6kafA09rnqlE72niW9-67" target="wL6kafA09rnqlE72niW9-6" edge="1">
          <mxGeometry relative="1" as="geometry" />
        </mxCell>
        <mxCell id="wL6kafA09rnqlE72niW9-67" value="Clubes de ajedrez" style="ellipse;shape=doubleEllipse;margin=3;whiteSpace=wrap;html=1;align=center;fillColor=#d5e8d4;strokeColor=#82b366;" parent="1" vertex="1">
          <mxGeometry x="-190" y="390" width="100" height="40" as="geometry" />
        </mxCell>
        <mxCell id="wL6kafA09rnqlE72niW9-70" style="edgeStyle=orthogonalEdgeStyle;rounded=0;orthogonalLoop=1;jettySize=auto;html=1;endArrow=none;endFill=0;entryX=0.5;entryY=1;entryDx=0;entryDy=0;" parent="1" source="wL6kafA09rnqlE72niW9-69" target="wL6kafA09rnqlE72niW9-7" edge="1">
          <mxGeometry relative="1" as="geometry">
            <mxPoint x="539" y="1030" as="targetPoint" />
            <Array as="points" />
          </mxGeometry>
        </mxCell>
        <mxCell id="wL6kafA09rnqlE72niW9-69" value="Cod_P&amp;nbsp;" style="whiteSpace=wrap;html=1;align=center;shape=ellipse;perimeter=ellipsePerimeter;fontStyle=4;fillColor=#fff2cc;strokeColor=#d6b656;" parent="1" vertex="1">
          <mxGeometry x="340" y="1070" width="100" height="40" as="geometry" />
        </mxCell>
        <mxCell id="wL6kafA09rnqlE72niW9-80" style="edgeStyle=orthogonalEdgeStyle;rounded=0;orthogonalLoop=1;jettySize=auto;html=1;entryX=0.5;entryY=1;entryDx=0;entryDy=0;endArrow=none;endFill=0;" parent="1" source="wL6kafA09rnqlE72niW9-79" target="wL6kafA09rnqlE72niW9-4" edge="1">
          <mxGeometry relative="1" as="geometry" />
        </mxCell>
        <mxCell id="wL6kafA09rnqlE72niW9-81" style="edgeStyle=orthogonalEdgeStyle;rounded=0;orthogonalLoop=1;jettySize=auto;html=1;exitX=0.5;exitY=1;exitDx=0;exitDy=0;entryX=1;entryY=0;entryDx=0;entryDy=0;endArrow=none;endFill=0;" parent="1" source="wL6kafA09rnqlE72niW9-79" target="wL6kafA09rnqlE72niW9-7" edge="1">
          <mxGeometry relative="1" as="geometry" />
        </mxCell>
        <mxCell id="wL6kafA09rnqlE72niW9-96" style="edgeStyle=orthogonalEdgeStyle;rounded=0;orthogonalLoop=1;jettySize=auto;html=1;endArrow=none;endFill=0;" parent="1" source="wL6kafA09rnqlE72niW9-79" edge="1">
          <mxGeometry relative="1" as="geometry">
            <mxPoint x="590" y="789.9999999999995" as="targetPoint" />
          </mxGeometry>
        </mxCell>
        <mxCell id="wL6kafA09rnqlE72niW9-79" value="Juega" style="shape=rhombus;perimeter=rhombusPerimeter;whiteSpace=wrap;html=1;align=center;fillColor=#dae8fc;strokeColor=#6c8ebf;" parent="1" vertex="1">
          <mxGeometry x="420" y="760" width="120" height="60" as="geometry" />
        </mxCell>
        <mxCell id="wL6kafA09rnqlE72niW9-87" value="2:N" style="text;html=1;align=center;verticalAlign=middle;resizable=0;points=[];autosize=1;strokeColor=none;fillColor=none;" parent="1" vertex="1">
          <mxGeometry x="440" y="900" width="40" height="30" as="geometry" />
        </mxCell>
        <mxCell id="wL6kafA09rnqlE72niW9-88" style="edgeStyle=orthogonalEdgeStyle;rounded=0;orthogonalLoop=1;jettySize=auto;html=1;entryX=0.5;entryY=1;entryDx=0;entryDy=0;endArrow=none;endFill=0;" parent="1" source="wL6kafA09rnqlE72niW9-90" target="wL6kafA09rnqlE72niW9-5" edge="1">
          <mxGeometry relative="1" as="geometry">
            <mxPoint x="315" y="645" as="targetPoint" />
          </mxGeometry>
        </mxCell>
        <mxCell id="wL6kafA09rnqlE72niW9-89" style="edgeStyle=orthogonalEdgeStyle;rounded=0;orthogonalLoop=1;jettySize=auto;html=1;exitX=0.5;exitY=1;exitDx=0;exitDy=0;entryX=0;entryY=0;entryDx=0;entryDy=0;endArrow=none;endFill=0;" parent="1" source="wL6kafA09rnqlE72niW9-90" target="wL6kafA09rnqlE72niW9-7" edge="1">
          <mxGeometry relative="1" as="geometry">
            <mxPoint x="275" y="940" as="targetPoint" />
          </mxGeometry>
        </mxCell>
        <mxCell id="wL6kafA09rnqlE72niW9-90" value="Arbitra" style="shape=rhombus;perimeter=rhombusPerimeter;whiteSpace=wrap;html=1;align=center;fillColor=#dae8fc;strokeColor=#6c8ebf;" parent="1" vertex="1">
          <mxGeometry x="240" y="750" width="120" height="60" as="geometry" />
        </mxCell>
        <mxCell id="wL6kafA09rnqlE72niW9-91" value="1:N" style="text;html=1;align=center;verticalAlign=middle;resizable=0;points=[];autosize=1;strokeColor=none;fillColor=none;" parent="1" vertex="1">
          <mxGeometry x="300" y="920" width="40" height="30" as="geometry" />
        </mxCell>
        <mxCell id="wL6kafA09rnqlE72niW9-92" value="1:1" style="text;html=1;align=center;verticalAlign=middle;resizable=0;points=[];autosize=1;strokeColor=none;fillColor=none;" parent="1" vertex="1">
          <mxGeometry x="255" y="655" width="40" height="30" as="geometry" />
        </mxCell>
        <mxCell id="wL6kafA09rnqlE72niW9-93" value="1:2" style="text;html=1;align=center;verticalAlign=middle;resizable=0;points=[];autosize=1;strokeColor=none;fillColor=none;" parent="1" vertex="1">
          <mxGeometry x="485" y="655" width="40" height="30" as="geometry" />
        </mxCell>
        <mxCell id="wL6kafA09rnqlE72niW9-94" value="Número de partidas" style="ellipse;whiteSpace=wrap;html=1;align=center;fillColor=#d5e8d4;strokeColor=#82b366;" parent="1" vertex="1">
          <mxGeometry x="620" y="685" width="100" height="40" as="geometry" />
        </mxCell>
        <mxCell id="wL6kafA09rnqlE72niW9-97" value="Color de las piezas" style="ellipse;whiteSpace=wrap;html=1;align=center;fillColor=#d5e8d4;strokeColor=#82b366;" parent="1" vertex="1">
          <mxGeometry x="590" y="770" width="100" height="40" as="geometry" />
        </mxCell>
        <mxCell id="wL6kafA09rnqlE72niW9-102" style="edgeStyle=orthogonalEdgeStyle;rounded=0;orthogonalLoop=1;jettySize=auto;html=1;exitX=0;exitY=0;exitDx=0;exitDy=0;entryX=1;entryY=1;entryDx=0;entryDy=0;endArrow=none;endFill=0;" parent="1" source="wL6kafA09rnqlE72niW9-101" target="wL6kafA09rnqlE72niW9-79" edge="1">
          <mxGeometry relative="1" as="geometry" />
        </mxCell>
        <mxCell id="wL6kafA09rnqlE72niW9-101" value="Jornada" style="ellipse;whiteSpace=wrap;html=1;align=center;fillColor=#d5e8d4;strokeColor=#82b366;" parent="1" vertex="1">
          <mxGeometry x="570" y="843" width="100" height="40" as="geometry" />
        </mxCell>
        <mxCell id="wL6kafA09rnqlE72niW9-108" style="edgeStyle=orthogonalEdgeStyle;rounded=0;orthogonalLoop=1;jettySize=auto;html=1;exitX=0.5;exitY=0;exitDx=0;exitDy=0;entryX=0.5;entryY=1;entryDx=0;entryDy=0;endArrow=none;endFill=0;" parent="1" source="wL6kafA09rnqlE72niW9-106" target="wL6kafA09rnqlE72niW9-8" edge="1">
          <mxGeometry relative="1" as="geometry" />
        </mxCell>
        <mxCell id="wL6kafA09rnqlE72niW9-106" value="Dispone" style="shape=rhombus;perimeter=rhombusPerimeter;whiteSpace=wrap;html=1;align=center;fillColor=#dae8fc;strokeColor=#6c8ebf;" parent="1" vertex="1">
          <mxGeometry x="-120" y="690" width="120" height="60" as="geometry" />
        </mxCell>
        <mxCell id="wL6kafA09rnqlE72niW9-110" style="edgeStyle=orthogonalEdgeStyle;rounded=0;orthogonalLoop=1;jettySize=auto;html=1;entryX=0.5;entryY=1;entryDx=0;entryDy=0;endArrow=none;endFill=0;" parent="1" source="wL6kafA09rnqlE72niW9-109" target="wL6kafA09rnqlE72niW9-38" edge="1">
          <mxGeometry relative="1" as="geometry" />
        </mxCell>
        <mxCell id="wL6kafA09rnqlE72niW9-109" value="Fecha" style="ellipse;whiteSpace=wrap;html=1;align=center;fillColor=#d5e8d4;strokeColor=#82b366;" parent="1" vertex="1">
          <mxGeometry x="150" y="540" width="100" height="40" as="geometry" />
        </mxCell>
        <mxCell id="wL6kafA09rnqlE72niW9-112" style="edgeStyle=orthogonalEdgeStyle;rounded=0;orthogonalLoop=1;jettySize=auto;html=1;entryX=0;entryY=0.5;entryDx=0;entryDy=0;endArrow=none;endFill=0;" parent="1" source="wL6kafA09rnqlE72niW9-111" target="wL6kafA09rnqlE72niW9-8" edge="1">
          <mxGeometry relative="1" as="geometry" />
        </mxCell>
        <mxCell id="wL6kafA09rnqlE72niW9-111" value="Nombre" style="ellipse;whiteSpace=wrap;html=1;align=center;fillColor=#d5e8d4;strokeColor=#82b366;" parent="1" vertex="1">
          <mxGeometry x="-210" y="550" width="100" height="40" as="geometry" />
        </mxCell>
        <mxCell id="wL6kafA09rnqlE72niW9-113" value="1:N" style="text;html=1;align=center;verticalAlign=middle;resizable=0;points=[];autosize=1;strokeColor=none;fillColor=none;" parent="1" vertex="1">
          <mxGeometry x="35" y="521.25" width="40" height="30" as="geometry" />
        </mxCell>
        <mxCell id="wL6kafA09rnqlE72niW9-114" value="1:N" style="text;html=1;align=center;verticalAlign=middle;resizable=0;points=[];autosize=1;strokeColor=none;fillColor=none;" parent="1" vertex="1">
          <mxGeometry x="280" y="318" width="40" height="30" as="geometry" />
        </mxCell>
        <mxCell id="wL6kafA09rnqlE72niW9-115" value="N:M" style="text;html=1;align=center;verticalAlign=middle;resizable=0;points=[];autosize=1;strokeColor=none;fillColor=none;" parent="1" vertex="1">
          <mxGeometry x="170" y="381" width="50" height="30" as="geometry" />
        </mxCell>
        <mxCell id="wL6kafA09rnqlE72niW9-117" style="edgeStyle=orthogonalEdgeStyle;rounded=0;orthogonalLoop=1;jettySize=auto;html=1;exitX=1;exitY=1;exitDx=0;exitDy=0;entryX=0;entryY=0;entryDx=0;entryDy=0;endArrow=none;endFill=0;" parent="1" source="wL6kafA09rnqlE72niW9-116" target="wL6kafA09rnqlE72niW9-8" edge="1">
          <mxGeometry relative="1" as="geometry" />
        </mxCell>
        <mxCell id="wL6kafA09rnqlE72niW9-116" value="Dirección" style="ellipse;whiteSpace=wrap;html=1;align=center;fillColor=#d5e8d4;strokeColor=#82b366;" parent="1" vertex="1">
          <mxGeometry x="-150" y="490" width="100" height="40" as="geometry" />
        </mxCell>
        <mxCell id="wL6kafA09rnqlE72niW9-119" style="edgeStyle=orthogonalEdgeStyle;rounded=0;orthogonalLoop=1;jettySize=auto;html=1;exitX=0;exitY=0;exitDx=0;exitDy=0;entryX=1;entryY=1;entryDx=0;entryDy=0;endArrow=none;endFill=0;" parent="1" source="wL6kafA09rnqlE72niW9-118" target="wL6kafA09rnqlE72niW9-8" edge="1">
          <mxGeometry relative="1" as="geometry">
            <Array as="points">
              <mxPoint x="50" y="636" />
            </Array>
          </mxGeometry>
        </mxCell>
        <mxCell id="wL6kafA09rnqlE72niW9-118" value="Teléfono" style="ellipse;whiteSpace=wrap;html=1;align=center;fillColor=#d5e8d4;strokeColor=#82b366;" parent="1" vertex="1">
          <mxGeometry x="60" y="630" width="100" height="40" as="geometry" />
        </mxCell>
        <mxCell id="wL6kafA09rnqlE72niW9-121" value="1:1" style="text;html=1;align=center;verticalAlign=middle;resizable=0;points=[];autosize=1;strokeColor=none;fillColor=none;" parent="1" vertex="1">
          <mxGeometry x="-70" y="850" width="40" height="30" as="geometry" />
        </mxCell>
        <mxCell id="wL6kafA09rnqlE72niW9-123" value="1:N" style="text;html=1;align=center;verticalAlign=middle;resizable=0;points=[];autosize=1;strokeColor=none;fillColor=none;" parent="1" vertex="1">
          <mxGeometry x="295" y="970" width="40" height="30" as="geometry" />
        </mxCell>
        <mxCell id="wL6kafA09rnqlE72niW9-126" value="1:N" style="text;html=1;align=center;verticalAlign=middle;resizable=0;points=[];autosize=1;strokeColor=none;fillColor=none;" parent="1" vertex="1">
          <mxGeometry x="60" y="848" width="40" height="30" as="geometry" />
        </mxCell>
        <mxCell id="wL6kafA09rnqlE72niW9-130" value="" style="edgeStyle=orthogonalEdgeStyle;rounded=0;orthogonalLoop=1;jettySize=auto;html=1;endArrow=none;endFill=0;" parent="1" source="wL6kafA09rnqlE72niW9-39" target="wL6kafA09rnqlE72niW9-129" edge="1">
          <mxGeometry relative="1" as="geometry">
            <mxPoint x="80" y="940" as="sourcePoint" />
            <mxPoint x="80" y="1049.9999999999998" as="targetPoint" />
          </mxGeometry>
        </mxCell>
        <mxCell id="wL6kafA09rnqlE72niW9-129" value="Entradas vendidas" style="ellipse;whiteSpace=wrap;html=1;align=center;fillColor=#d5e8d4;strokeColor=#82b366;" parent="1" vertex="1">
          <mxGeometry x="30" y="1020" width="100" height="40" as="geometry" />
        </mxCell>
        <mxCell id="wL6kafA09rnqlE72niW9-132" style="edgeStyle=orthogonalEdgeStyle;rounded=0;orthogonalLoop=1;jettySize=auto;html=1;exitX=1;exitY=0.5;exitDx=0;exitDy=0;entryX=0;entryY=0.5;entryDx=0;entryDy=0;endArrow=none;endFill=0;" parent="1" source="wL6kafA09rnqlE72niW9-131" target="wL6kafA09rnqlE72niW9-40" edge="1">
          <mxGeometry relative="1" as="geometry" />
        </mxCell>
        <mxCell id="wL6kafA09rnqlE72niW9-131" value="Capacidad" style="ellipse;whiteSpace=wrap;html=1;align=center;fillColor=#d5e8d4;strokeColor=#82b366;" parent="1" vertex="1">
          <mxGeometry x="-370" y="810" width="100" height="40" as="geometry" />
        </mxCell>
        <mxCell id="wL6kafA09rnqlE72niW9-134" style="edgeStyle=orthogonalEdgeStyle;rounded=0;orthogonalLoop=1;jettySize=auto;html=1;exitX=1;exitY=0;exitDx=0;exitDy=0;entryX=0;entryY=1;entryDx=0;entryDy=0;endArrow=none;endFill=0;" parent="1" source="wL6kafA09rnqlE72niW9-133" target="wL6kafA09rnqlE72niW9-40" edge="1">
          <mxGeometry relative="1" as="geometry" />
        </mxCell>
        <mxCell id="wL6kafA09rnqlE72niW9-133" value="Medios de retrasmisión" style="whiteSpace=wrap;html=1;align=center;shape=doubleEllipse;perimeter=ellipsePerimeter;margin=3;fillColor=#d5e8d4;strokeColor=#82b366;" parent="1" vertex="1">
          <mxGeometry x="-360" y="910" width="100" height="40" as="geometry" />
        </mxCell>
        <mxCell id="wL6kafA09rnqlE72niW9-141" style="edgeStyle=orthogonalEdgeStyle;rounded=0;orthogonalLoop=1;jettySize=auto;html=1;exitX=0.5;exitY=0;exitDx=0;exitDy=0;endArrow=none;endFill=0;" parent="1" source="wL6kafA09rnqlE72niW9-135" edge="1">
          <mxGeometry relative="1" as="geometry">
            <mxPoint x="720.0588235294117" y="889.9999999999998" as="targetPoint" />
          </mxGeometry>
        </mxCell>
        <mxCell id="wL6kafA09rnqlE72niW9-135" value="Movimientos" style="whiteSpace=wrap;html=1;align=center;fillColor=#ffe6cc;strokeColor=#d79b00;" parent="1" vertex="1">
          <mxGeometry x="670" y="950" width="100" height="40" as="geometry" />
        </mxCell>
        <mxCell id="wL6kafA09rnqlE72niW9-138" style="edgeStyle=orthogonalEdgeStyle;rounded=0;orthogonalLoop=1;jettySize=auto;html=1;exitX=1;exitY=0.5;exitDx=0;exitDy=0;entryX=0;entryY=0.5;entryDx=0;entryDy=0;endArrow=none;endFill=0;" parent="1" source="wL6kafA09rnqlE72niW9-136" target="wL6kafA09rnqlE72niW9-135" edge="1">
          <mxGeometry relative="1" as="geometry" />
        </mxCell>
        <mxCell id="wL6kafA09rnqlE72niW9-136" value="Tiene" style="shape=rhombus;perimeter=rhombusPerimeter;whiteSpace=wrap;html=1;align=center;fillColor=#dae8fc;strokeColor=#6c8ebf;" parent="1" vertex="1">
          <mxGeometry x="498.75" y="940" width="120" height="60" as="geometry" />
        </mxCell>
        <mxCell id="wL6kafA09rnqlE72niW9-140" style="edgeStyle=orthogonalEdgeStyle;rounded=0;orthogonalLoop=1;jettySize=auto;html=1;exitX=0.5;exitY=0;exitDx=0;exitDy=0;entryX=0.5;entryY=1;entryDx=0;entryDy=0;endArrow=none;endFill=0;" parent="1" source="wL6kafA09rnqlE72niW9-139" target="wL6kafA09rnqlE72niW9-135" edge="1">
          <mxGeometry relative="1" as="geometry" />
        </mxCell>
        <mxCell id="wL6kafA09rnqlE72niW9-139" value="número de orden" style="ellipse;whiteSpace=wrap;html=1;align=center;fillColor=#d5e8d4;strokeColor=#82b366;" parent="1" vertex="1">
          <mxGeometry x="670" y="1050" width="100" height="40" as="geometry" />
        </mxCell>
        <mxCell id="wL6kafA09rnqlE72niW9-142" value="Comentario" style="ellipse;whiteSpace=wrap;html=1;align=center;fillColor=#d5e8d4;strokeColor=#82b366;" parent="1" vertex="1">
          <mxGeometry x="670" y="860" width="100" height="40" as="geometry" />
        </mxCell>
        <mxCell id="wL6kafA09rnqlE72niW9-143" value="1:N" style="text;html=1;align=center;verticalAlign=middle;resizable=0;points=[];autosize=1;strokeColor=none;fillColor=none;" parent="1" vertex="1">
          <mxGeometry x="630" y="940" width="40" height="30" as="geometry" />
        </mxCell>
        <mxCell id="wL6kafA09rnqlE72niW9-145" value="1:N" style="text;html=1;align=center;verticalAlign=middle;resizable=0;points=[];autosize=1;strokeColor=none;fillColor=none;" parent="1" vertex="1">
          <mxGeometry x="440" y="940" width="40" height="30" as="geometry" />
        </mxCell>
        <mxCell id="wL6kafA09rnqlE72niW9-146" value="1:N" style="text;html=1;align=center;verticalAlign=middle;resizable=0;points=[];autosize=1;strokeColor=none;fillColor=none;" parent="1" vertex="1">
          <mxGeometry x="-120" y="778" width="40" height="30" as="geometry" />
        </mxCell>
        <mxCell id="wL6kafA09rnqlE72niW9-147" value="1:1" style="text;html=1;align=center;verticalAlign=middle;resizable=0;points=[];autosize=1;strokeColor=none;fillColor=none;" parent="1" vertex="1">
          <mxGeometry x="-45" y="600" width="40" height="30" as="geometry" />
        </mxCell>
        <mxCell id="wL6kafA09rnqlE72niW9-148" value="1:N" style="text;html=1;align=center;verticalAlign=middle;resizable=0;points=[];autosize=1;strokeColor=none;fillColor=none;" parent="1" vertex="1">
          <mxGeometry x="387.5" y="265" width="40" height="30" as="geometry" />
        </mxCell>
        <mxCell id="wL6kafA09rnqlE72niW9-149" value="1:1" style="text;html=1;align=center;verticalAlign=middle;resizable=0;points=[];autosize=1;strokeColor=none;fillColor=none;" parent="1" vertex="1">
          <mxGeometry x="392.5" y="60" width="40" height="30" as="geometry" />
        </mxCell>
      </root>
    </mxGraphModel>
  </diagram>
</mxfile>
